# xmcd CD database file
#
# Track frame offsets:
#	150
#	21023
#	34821
#	59206
#	72525
#	87210
#	105717
#	121245
#	142247
#	159681
#
# Disc length: 2401 seconds
#
# Revision: 0
# Processed by: cddbd v1.5.1PL2 Copyright (c) Steve Scherf et al.
# Submitted via: Feurio! 1.68 - http://www.feurio.com
#
DISCID=94095f0a
DTITLE=Roland Hofmaier - ... einewäg  ( Alemannischi Lieder )
DYEAR=1900
DGENRE=
TTITLE0=einewäg
TTITLE1=Im liebe Gott si große Zoo
TTITLE2=Heimweh
TTITLE3=Mi Briefchaschte
TTITLE4=S'Fetthafe Lied
TTITLE5=Im schönsten Wiesengrunde
TTITLE6=Lauf Rössli, lauf
TTITLE7=S'alt Kanapee
TTITLE8=Modi
TTITLE9=Guet Nacht Mitnand
EXTD=
EXTT0=
EXTT1=
EXTT2=
EXTT3=
EXTT4=
EXTT5=
EXTT6=
EXTT7=
EXTT8=
EXTT9=
PLAYORDER=
